<svg xmlns="http://www.w3.org/2000/svg" width="38" height="38" viewBox="0 0 38 38">
  <g id="Group_5997" data-name="Group 5997" transform="translate(-1508 -733)">
    <circle id="Ellipse_76" data-name="Ellipse 76" cx="19" cy="19" r="19" transform="translate(1508 733)" fill="#e1e5e6"/>
    <g id="Group_11073" data-name="Group 11073" transform="translate(1425.969 -135.874)" opacity="0.22">
      <path id="Path_7046" data-name="Path 7046" d="M101.014,1026.509a16.346,16.346,0,0,1-13.768-7.59,1.246,1.246,0,0,1-.081-1.422,10.118,10.118,0,0,1,7.538-5.525,1.705,1.705,0,0,1,1.282.285,8.576,8.576,0,0,0,10.075.008,1.723,1.723,0,0,1,1.283-.293,10.131,10.131,0,0,1,7.621,5.687.933.933,0,0,1-.084,1.028A16.292,16.292,0,0,1,101.014,1026.509Z" transform="translate(0 -120.873)" fill="#00457b"/>
      <path id="Path_7047" data-name="Path 7047" d="M151.092,882.3a8.17,8.17,0,1,1-8.165-8.184A8.205,8.205,0,0,1,151.092,882.3Z" transform="translate(-41.894 0)" fill="#00457b"/>
    </g>
  </g>
</svg>
