<svg xmlns="http://www.w3.org/2000/svg" width="22.452" height="20.5" viewBox="0 0 22.452 20.5"><defs><style>.a{fill:#4f99d5;}</style></defs><path class="a" d="M2.929,4.429V1.5H4.881V4.429H7.81V6.381H4.881V9.31H2.929V6.381H0V4.429Zm2.929,5.857V7.357H8.786V4.429h6.833l1.786,1.952H20.5a1.958,1.958,0,0,1,1.952,1.952V20.048A1.958,1.958,0,0,1,20.5,22H4.881a1.958,1.958,0,0,1-1.952-1.952V10.286Zm6.833,8.786A4.881,4.881,0,1,0,7.81,14.19,4.883,4.883,0,0,0,12.69,19.071ZM9.567,14.19a3.124,3.124,0,1,0,3.124-3.124A3.12,3.12,0,0,0,9.567,14.19Z" transform="translate(0 -1.5)"/></svg>