<svg xmlns="http://www.w3.org/2000/svg" width="29.715" height="29.103" viewBox="0 0 29.715 29.103">
  <g id="Group_5982" data-name="Group 5982" transform="translate(6170.708 -742.485)">
    <path id="Path_2375" data-name="Path 2375" d="M-6163.4,754.814a9.091,9.091,0,0,1-2.095-5.991,6.3,6.3,0,0,1,6.531-6.337,6.278,6.278,0,0,1,6.615,6.179,8.793,8.793,0,0,1-1.711,5.658l-.307.432c.95.557,1.866,1.115,2.809,1.624.149.081.436-.015.627-.1a7.038,7.038,0,0,1,9.719,4.673,7.055,7.055,0,0,1-8.386,8.606,1.568,1.568,0,0,0-.927.087c-6.849,3.158-13.374,2.357-19.633-1.6a1.312,1.312,0,0,1-.5-.892c-.406-5.043,1.786-10.2,7.07-12.219A1.383,1.383,0,0,0-6163.4,754.814Zm10.817,2.46c-.859-.4-1.641-.767-2.419-1.136a.867.867,0,0,0-1,.139,4.524,4.524,0,0,1-5.831,0,.936.936,0,0,0-1-.145c-4.845,1.749-6.724,6.212-6.475,10.555a.662.662,0,0,0,.291.441c5.339,3.261,10.928,4.1,16.839,1.7a2.509,2.509,0,0,0,.331-.2A7.154,7.154,0,0,1-6152.584,757.274Zm-1.153-7.653c.015-3.241-1.514-5.155-4.119-5.656a5.037,5.037,0,0,0-6.111,3.8,7.586,7.586,0,0,0,3.312,7.632,3.11,3.11,0,0,0,3.738-.176A7.421,7.421,0,0,0-6153.737,749.621Zm5.708,18.689a5.628,5.628,0,0,0,5.641-5.636,5.658,5.658,0,0,0-5.6-5.631,5.643,5.643,0,0,0-5.664,5.622A5.611,5.611,0,0,0-6148.029,768.31Z" transform="translate(0)"/>
    <path id="Path_2376" data-name="Path 2376" d="M-6142.037,860.438a7.154,7.154,0,0,0,.744,11.353,2.526,2.526,0,0,1-.331.2c-5.912,2.4-11.5,1.564-16.839-1.7a.66.66,0,0,1-.291-.441c-.249-4.343,1.629-8.806,6.475-10.555a.934.934,0,0,1,1,.145,4.525,4.525,0,0,0,5.832,0,.866.866,0,0,1,1-.139C-6143.679,859.672-6142.9,860.035-6142.037,860.438Z" transform="translate(-10.547 -103.165)" fill="#4f99d5"/>
    <path id="Path_2377" data-name="Path 2377" d="M-6103.442,760.05a7.424,7.424,0,0,1-3.181,5.6,3.111,3.111,0,0,1-3.739.176,7.587,7.587,0,0,1-3.312-7.632,5.037,5.037,0,0,1,6.111-3.8C-6104.957,754.895-6103.429,756.81-6103.442,760.05Z" transform="translate(-50.294 -10.429)" fill="#d1d6e9"/>
    <path id="Path_2378" data-name="Path 2378" d="M-6018.223,879.125a5.611,5.611,0,0,1-5.625-5.645,5.643,5.643,0,0,1,5.664-5.622,5.659,5.659,0,0,1,5.6,5.631A5.628,5.628,0,0,1-6018.223,879.125Zm-.751-4.575c-.67-.7-1.251-1.31-1.846-1.911a.652.652,0,0,0-1.021-.041.666.666,0,0,0,.042,1.026q1.116,1.136,2.251,2.253a.714.714,0,0,0,1.12,0q1.887-1.879,3.768-3.766a.677.677,0,0,0,.076-1.027.673.673,0,0,0-1.065.049c-.59.583-1.181,1.166-1.76,1.761C-6017.917,873.415-6018.411,873.954-6018.974,874.551Z" transform="translate(-129.807 -110.815)" fill="#b1d2ed"/>
    <path id="Path_2379" data-name="Path 2379" d="M-6005.376,897.266c.563-.6,1.057-1.135,1.566-1.658.58-.595,1.17-1.178,1.76-1.761a.673.673,0,0,1,1.065-.049.677.677,0,0,1-.076,1.027q-1.882,1.885-3.768,3.766a.714.714,0,0,1-1.12,0q-1.137-1.116-2.252-2.253a.666.666,0,0,1-.042-1.026.652.652,0,0,1,1.021.041C-6006.627,895.956-6006.046,896.57-6005.376,897.266Z" transform="translate(-143.404 -133.53)"/>
  </g>
</svg>
